<svg width="362" height="178" viewBox="0 0 362 178" fill="none" xmlns="http://www.w3.org/2000/svg">
<path d="M100.705 121.645C101.015 121.645 101.247 121.743 101.402 121.94C101.571 122.123 101.656 122.363 101.656 122.658C101.656 122.968 101.564 123.257 101.381 123.524C101.198 123.778 100.959 123.996 100.663 124.179C99.9167 124.644 98.8043 124.876 97.3259 124.876C96.7063 124.876 95.9882 124.827 95.1715 124.728L92.0457 136.45C91.9189 136.887 91.8556 137.246 91.8556 137.528C91.8556 137.88 91.9823 138.126 92.2357 138.267C92.5033 138.393 92.9679 138.464 93.6297 138.478L93.5452 138.9C92.813 138.858 91.764 138.837 90.3982 138.837C89.0183 138.837 87.9904 138.858 87.3146 138.9L87.3991 138.478C87.9904 138.45 88.4481 138.379 88.7719 138.267C89.1099 138.14 89.3703 137.943 89.5534 137.675C89.7364 137.394 89.9124 136.985 90.0814 136.45L93.2707 124.475C92.1301 124.32 91.2219 124.242 90.5461 124.242C89.3211 124.242 88.5325 124.362 88.1805 124.602C88.2932 124.756 88.3847 124.947 88.4551 125.172C88.5255 125.397 88.5607 125.615 88.5607 125.827C88.5607 126.15 88.4692 126.439 88.2861 126.693C88.1031 126.932 87.8426 127.052 87.5047 127.052C87.209 127.052 86.9766 126.96 86.8077 126.777C86.6528 126.58 86.5753 126.319 86.5753 125.996C86.5753 125.263 86.9485 124.714 87.6948 124.348C88.3565 124.024 89.2999 123.862 90.525 123.862C91.0882 123.862 91.6232 123.89 92.1301 123.947C92.637 123.989 93.2777 124.059 94.0521 124.158C94.7843 124.257 95.3968 124.334 95.8897 124.39C96.3966 124.433 96.9246 124.454 97.4737 124.454C98.1074 124.454 98.6354 124.418 99.0578 124.348C99.4802 124.278 99.8604 124.158 100.198 123.989C99.8463 123.637 99.6703 123.243 99.6703 122.806C99.6703 122.496 99.7548 122.229 99.9237 122.004C100.107 121.764 100.367 121.645 100.705 121.645ZM110.382 136.345H110.868L110.784 136.619C110.53 137.492 110.192 138.14 109.77 138.562C109.362 138.985 108.834 139.196 108.186 139.196C107.538 139.196 107.066 139.006 106.771 138.626C106.489 138.232 106.362 137.746 106.391 137.168L106.475 135.838C106.489 135.711 106.496 135.521 106.496 135.268C106.496 134.704 106.405 134.261 106.222 133.937C106.053 133.599 105.743 133.346 105.292 133.177C104.842 132.994 104.194 132.888 103.349 132.86H103.222H102.948L101.934 136.662C101.821 137.112 101.765 137.45 101.765 137.675C101.765 137.943 101.864 138.14 102.061 138.267C102.272 138.379 102.645 138.45 103.18 138.478L103.096 138.9C102.448 138.858 101.575 138.837 100.477 138.837C99.2376 138.837 98.3224 138.858 97.731 138.9L97.8155 138.478C98.3224 138.45 98.7025 138.393 98.956 138.309C99.2094 138.225 99.4066 138.063 99.5474 137.823C99.7023 137.584 99.8501 137.197 99.9909 136.662L102.23 128.298C102.328 127.847 102.378 127.537 102.378 127.368C102.378 127.073 102.272 126.861 102.061 126.735C101.864 126.594 101.505 126.509 100.984 126.481L101.089 126.059C101.652 126.101 102.518 126.122 103.687 126.122C104.363 126.122 104.87 126.115 105.208 126.101L106.771 126.08C108.151 126.08 109.193 126.312 109.897 126.777C110.615 127.228 110.974 127.847 110.974 128.636C110.974 129.692 110.495 130.579 109.538 131.297C108.58 132.001 107.271 132.473 105.609 132.712L106.053 132.775C106.94 132.944 107.566 133.233 107.932 133.641C108.313 134.036 108.474 134.676 108.418 135.563L108.355 136.683C108.341 136.809 108.334 136.978 108.334 137.19C108.334 137.584 108.383 137.887 108.482 138.098C108.58 138.309 108.749 138.415 108.988 138.415C109.242 138.415 109.467 138.274 109.664 137.992C109.861 137.696 110.066 137.246 110.277 136.64L110.382 136.345ZM103.075 132.437H103.434C104.785 132.437 105.848 132.304 106.623 132.036C107.411 131.769 107.975 131.353 108.313 130.79C108.665 130.213 108.841 129.452 108.841 128.509C108.841 127.819 108.629 127.312 108.207 126.988C107.785 126.65 107.102 126.481 106.158 126.481C105.736 126.481 105.405 126.538 105.166 126.65C104.926 126.749 104.729 126.925 104.574 127.178C104.433 127.432 104.3 127.805 104.173 128.298L103.075 132.437ZM124.205 132.754C123.698 134.697 123.008 136.19 122.135 137.232C121.614 137.837 120.974 138.316 120.213 138.668C119.467 139.02 118.664 139.196 117.806 139.196C116.229 139.196 115.144 138.816 114.553 138.056C114.299 137.732 114.109 137.401 113.983 137.063C113.856 136.725 113.793 136.338 113.793 135.901C113.793 135.197 113.976 134.169 114.342 132.818L115.546 128.298C115.658 127.819 115.715 127.481 115.715 127.284C115.715 126.974 115.609 126.77 115.398 126.671C115.201 126.573 114.835 126.509 114.299 126.481L114.426 126.059C114.989 126.101 115.898 126.122 117.151 126.122C118.235 126.122 119.115 126.101 119.791 126.059L119.664 126.481C119.143 126.509 118.756 126.566 118.503 126.65C118.263 126.735 118.066 126.897 117.911 127.136C117.77 127.375 117.63 127.763 117.489 128.298L116.179 133.177C115.869 134.373 115.715 135.324 115.715 136.028C115.715 136.802 115.905 137.401 116.285 137.823C116.665 138.246 117.306 138.457 118.207 138.457C119.685 138.457 120.847 137.978 121.692 137.021C122.551 136.063 123.205 134.718 123.656 132.987L124.86 128.509C124.959 128.157 125.008 127.84 125.008 127.558C125.008 127.178 124.881 126.911 124.628 126.756C124.388 126.601 123.994 126.509 123.445 126.481L123.55 126.059C124.057 126.101 124.768 126.122 125.684 126.122C126.543 126.122 127.204 126.101 127.669 126.059L127.563 126.481C126.93 126.509 126.451 126.664 126.127 126.946C125.803 127.228 125.536 127.749 125.325 128.509L124.205 132.754ZM138.243 125.911C137.736 127.192 137.32 128.629 136.996 130.22H136.574C136.658 129.811 136.701 129.417 136.701 129.037C136.701 128.192 136.454 127.502 135.961 126.967C135.469 126.432 134.701 126.164 133.659 126.164C132.8 126.164 132.096 126.355 131.547 126.735C131.012 127.115 130.745 127.671 130.745 128.403C130.745 129.079 130.97 129.656 131.42 130.135C131.871 130.6 132.561 131.135 133.49 131.74C134.194 132.205 134.743 132.592 135.138 132.902C135.532 133.212 135.863 133.585 136.13 134.021C136.398 134.458 136.532 134.958 136.532 135.521C136.532 136.324 136.264 137.007 135.729 137.57C135.208 138.119 134.539 138.527 133.723 138.795C132.906 139.062 132.068 139.196 131.209 139.196C130.449 139.196 129.85 139.105 129.414 138.922C128.977 138.753 128.569 138.52 128.189 138.225C127.921 138.013 127.675 137.908 127.45 137.908C127.267 137.908 127.119 137.992 127.006 138.161C126.894 138.316 126.746 138.612 126.563 139.048H126.14C126.366 138.513 126.584 137.873 126.795 137.126C127.02 136.366 127.281 135.317 127.576 133.979H127.999C127.872 134.641 127.809 135.162 127.809 135.542C127.809 136.57 128.09 137.366 128.654 137.929C129.231 138.492 130.111 138.774 131.294 138.774C132.251 138.774 132.997 138.591 133.533 138.225C134.082 137.844 134.356 137.274 134.356 136.514C134.356 135.81 134.152 135.225 133.744 134.761C133.335 134.282 132.723 133.768 131.906 133.219C131.216 132.754 130.688 132.374 130.322 132.078C129.97 131.783 129.667 131.417 129.414 130.98C129.161 130.544 129.034 130.037 129.034 129.459C129.034 128.685 129.252 128.023 129.689 127.474C130.139 126.911 130.723 126.488 131.442 126.207C132.16 125.911 132.927 125.763 133.744 125.763C134.321 125.763 134.807 125.834 135.201 125.974C135.595 126.115 136.004 126.34 136.426 126.65C136.567 126.763 136.701 126.854 136.827 126.925C136.954 126.995 137.053 127.03 137.123 127.03C137.236 127.03 137.341 126.946 137.44 126.777C137.553 126.594 137.679 126.305 137.82 125.911H138.243ZM152.25 123.757C152.56 123.757 152.792 123.855 152.947 124.052C153.116 124.235 153.2 124.468 153.2 124.749C153.2 125.313 152.877 125.834 152.229 126.312C151.82 126.552 151.391 126.728 150.94 126.84C150.49 126.939 149.948 126.988 149.314 126.988C148.779 126.988 148.181 126.953 147.519 126.883L144.752 136.45C144.625 136.873 144.562 137.225 144.562 137.506C144.562 137.858 144.696 138.105 144.963 138.246C145.231 138.386 145.688 138.464 146.336 138.478L146.252 138.9C145.519 138.858 144.47 138.837 143.105 138.837C141.725 138.837 140.697 138.858 140.021 138.9L140.105 138.478C140.711 138.45 141.176 138.379 141.499 138.267C141.823 138.154 142.077 137.964 142.26 137.696C142.457 137.429 142.633 137.014 142.788 136.45L145.639 126.608C144.4 126.439 143.513 126.355 142.978 126.355C142.077 126.355 141.415 126.474 140.993 126.714C141.105 126.869 141.197 127.059 141.267 127.284C141.337 127.509 141.373 127.727 141.373 127.939C141.373 128.262 141.281 128.551 141.098 128.805C140.915 129.044 140.655 129.164 140.317 129.164C140.021 129.164 139.789 129.072 139.62 128.889C139.465 128.692 139.387 128.431 139.387 128.108C139.387 127.39 139.753 126.84 140.486 126.46C141.091 126.136 141.887 125.974 142.872 125.974C143.675 125.974 144.794 126.073 146.23 126.27C146.751 126.34 147.287 126.411 147.836 126.481C148.399 126.538 148.92 126.566 149.399 126.566C149.92 126.566 150.356 126.531 150.708 126.46C151.06 126.39 151.405 126.27 151.743 126.101C151.391 125.749 151.215 125.355 151.215 124.918C151.215 124.609 151.3 124.341 151.468 124.116C151.652 123.876 151.912 123.757 152.25 123.757ZM170.504 123.757C170.814 123.757 171.046 123.855 171.201 124.052C171.37 124.235 171.454 124.468 171.454 124.749C171.454 125.313 171.13 125.834 170.483 126.312C170.074 126.552 169.645 126.728 169.194 126.84C168.744 126.939 168.202 126.988 167.568 126.988C167.033 126.988 166.435 126.953 165.773 126.883L163.006 136.45C162.879 136.873 162.816 137.225 162.816 137.506C162.816 137.858 162.95 138.105 163.217 138.246C163.485 138.386 163.942 138.464 164.59 138.478L164.506 138.9C163.773 138.858 162.724 138.837 161.358 138.837C159.979 138.837 158.951 138.858 158.275 138.9L158.359 138.478C158.965 138.45 159.429 138.379 159.753 138.267C160.077 138.154 160.331 137.964 160.514 137.696C160.711 137.429 160.887 137.014 161.042 136.45L163.893 126.608C162.654 126.439 161.767 126.355 161.232 126.355C160.331 126.355 159.669 126.474 159.246 126.714C159.359 126.869 159.451 127.059 159.521 127.284C159.591 127.509 159.627 127.727 159.627 127.939C159.627 128.262 159.535 128.551 159.352 128.805C159.169 129.044 158.908 129.164 158.571 129.164C158.275 129.164 158.043 129.072 157.874 128.889C157.719 128.692 157.641 128.431 157.641 128.108C157.641 127.39 158.007 126.84 158.74 126.46C159.345 126.136 160.141 125.974 161.126 125.974C161.929 125.974 163.048 126.073 164.484 126.27C165.005 126.34 165.54 126.411 166.09 126.481C166.653 126.538 167.174 126.566 167.653 126.566C168.174 126.566 168.61 126.531 168.962 126.46C169.314 126.39 169.659 126.27 169.997 126.101C169.645 125.749 169.469 125.355 169.469 124.918C169.469 124.609 169.553 124.341 169.722 124.116C169.905 123.876 170.166 123.757 170.504 123.757ZM182.993 126.122C184.19 126.122 185.098 126.101 185.718 126.059L185.612 126.481C185.091 126.509 184.704 126.566 184.451 126.65C184.211 126.735 184.014 126.897 183.859 127.136C183.718 127.375 183.578 127.763 183.437 128.298L181.219 136.662C181.092 137.197 181.029 137.542 181.029 137.696C181.029 137.992 181.128 138.189 181.325 138.288C181.536 138.386 181.916 138.45 182.465 138.478L182.381 138.9C181.789 138.858 180.888 138.837 179.677 138.837C178.551 138.837 177.657 138.858 176.995 138.9L177.079 138.478C177.586 138.45 177.966 138.393 178.22 138.309C178.473 138.225 178.67 138.063 178.811 137.823C178.966 137.584 179.114 137.197 179.255 136.662L180.311 132.649H173.531L172.475 136.662C172.348 137.197 172.285 137.542 172.285 137.696C172.285 137.992 172.383 138.189 172.581 138.288C172.792 138.386 173.172 138.45 173.721 138.478L173.637 138.9C172.989 138.858 172.095 138.837 170.954 138.837C169.786 138.837 168.892 138.858 168.272 138.9L168.378 138.478C168.87 138.45 169.236 138.393 169.476 138.309C169.729 138.225 169.926 138.063 170.067 137.823C170.222 137.57 170.37 137.183 170.511 136.662L172.728 128.298C172.841 127.819 172.897 127.481 172.897 127.284C172.897 126.974 172.792 126.77 172.581 126.671C172.383 126.573 172.017 126.509 171.482 126.481L171.588 126.059C172.165 126.101 173.059 126.122 174.27 126.122C175.397 126.122 176.298 126.101 176.974 126.059L176.868 126.481C176.347 126.509 175.96 126.566 175.707 126.65C175.467 126.735 175.27 126.897 175.115 127.136C174.974 127.375 174.834 127.763 174.693 128.298L173.658 132.226H180.438L181.473 128.298C181.599 127.847 181.663 127.509 181.663 127.284C181.663 126.974 181.557 126.77 181.346 126.671C181.135 126.573 180.761 126.509 180.226 126.481L180.332 126.059C180.966 126.101 181.853 126.122 182.993 126.122ZM193.529 126.122C195.655 126.122 197.183 126.101 198.112 126.059C197.844 126.721 197.591 127.481 197.351 128.34C197.14 129.157 197.021 129.664 196.992 129.861H196.507C196.633 129.241 196.697 128.727 196.697 128.319C196.697 127.671 196.521 127.213 196.169 126.946C195.831 126.678 195.253 126.545 194.437 126.545H192.895C192.388 126.545 192.008 126.587 191.754 126.671C191.501 126.742 191.297 126.897 191.142 127.136C191.001 127.375 190.86 127.763 190.72 128.298L189.663 132.226H191.628C192.261 132.226 192.747 132.008 193.085 131.571C193.437 131.121 193.747 130.551 194.014 129.861H194.5C194.162 130.86 193.909 131.719 193.74 132.437L193.613 132.902C193.402 133.705 193.254 134.409 193.17 135.014H192.684C192.698 134.93 192.719 134.782 192.747 134.571C192.775 134.359 192.789 134.176 192.789 134.021C192.789 133.599 192.677 133.268 192.451 133.029C192.24 132.775 191.853 132.649 191.29 132.649H189.537L188.46 136.662C188.333 137.197 188.269 137.535 188.269 137.675C188.269 137.985 188.368 138.189 188.565 138.288C188.776 138.372 189.157 138.415 189.706 138.415H191.248C192.022 138.415 192.663 138.295 193.17 138.056C193.691 137.816 194.141 137.429 194.521 136.894C194.916 136.359 195.289 135.62 195.641 134.676H196.126C195.873 135.422 195.704 136 195.62 136.408C195.465 136.929 195.289 137.76 195.092 138.9C194.106 138.858 192.451 138.837 190.128 138.837C187.523 138.837 185.552 138.858 184.214 138.9L184.32 138.478C184.827 138.45 185.207 138.393 185.46 138.309C185.714 138.225 185.911 138.063 186.052 137.823C186.207 137.584 186.355 137.197 186.495 136.662L188.755 128.298C188.882 127.763 188.945 127.418 188.945 127.263C188.945 126.967 188.84 126.77 188.629 126.671C188.431 126.573 188.065 126.509 187.53 126.481L187.636 126.059C188.959 126.101 190.924 126.122 193.529 126.122ZM219.91 125.827C220.994 125.827 221.874 125.805 222.55 125.763L222.445 126.186C221.924 126.214 221.536 126.27 221.283 126.355C221.044 126.439 220.846 126.601 220.692 126.84C220.551 127.08 220.41 127.467 220.269 128.002L217.967 136.662C217.854 137.14 217.798 137.478 217.798 137.675C217.798 137.985 217.897 138.189 218.094 138.288C218.305 138.386 218.678 138.45 219.213 138.478L219.129 138.9C218.481 138.858 217.608 138.837 216.51 138.837C215.271 138.837 214.355 138.858 213.764 138.9L213.848 138.478C214.369 138.45 214.75 138.393 214.989 138.309C215.242 138.225 215.439 138.063 215.58 137.823C215.735 137.584 215.883 137.197 216.024 136.662L218.579 127.136L210.321 139.006H209.857L207.935 126.946L205.421 136.45C205.294 136.985 205.231 137.344 205.231 137.528C205.231 137.865 205.344 138.105 205.569 138.246C205.808 138.372 206.224 138.45 206.815 138.478L206.71 138.9C206.203 138.858 205.492 138.837 204.576 138.837C203.717 138.837 203.056 138.858 202.591 138.9L202.697 138.478C203.189 138.45 203.57 138.379 203.837 138.267C204.119 138.14 204.337 137.943 204.492 137.675C204.647 137.394 204.802 136.985 204.956 136.45L207.195 128.002C207.308 127.523 207.364 127.185 207.364 126.988C207.364 126.678 207.259 126.474 207.047 126.376C206.85 126.277 206.484 126.214 205.949 126.186L206.055 125.763C206.491 125.805 207.118 125.827 207.935 125.827C208.624 125.827 209.216 125.805 209.709 125.763L211.377 136.662L218.896 125.827H219.91ZM227.649 139.196C226.072 139.196 224.811 138.767 223.868 137.908C222.925 137.049 222.453 135.782 222.453 134.106C222.453 132.825 222.812 131.536 223.53 130.241C224.248 128.945 225.248 127.875 226.529 127.03C227.811 126.186 229.254 125.763 230.859 125.763C232.436 125.763 233.696 126.193 234.64 127.052C235.583 127.91 236.055 129.178 236.055 130.853C236.055 132.135 235.696 133.423 234.978 134.718C234.26 136.014 233.26 137.084 231.979 137.929C230.697 138.774 229.254 139.196 227.649 139.196ZM230.669 126.143C229.557 126.143 228.543 126.545 227.628 127.347C226.712 128.15 225.994 129.192 225.473 130.473C224.966 131.74 224.713 133.05 224.713 134.402C224.713 135.922 224.987 137.042 225.537 137.76C226.1 138.464 226.867 138.816 227.839 138.816C228.951 138.816 229.965 138.415 230.88 137.612C231.795 136.809 232.507 135.774 233.013 134.507C233.534 133.226 233.795 131.909 233.795 130.558C233.795 129.037 233.513 127.925 232.95 127.221C232.401 126.502 231.641 126.143 230.669 126.143ZM253.51 125.827C254.594 125.827 255.474 125.805 256.15 125.763L256.044 126.186C255.523 126.214 255.136 126.27 254.882 126.355C254.643 126.439 254.446 126.601 254.291 126.84C254.15 127.08 254.009 127.467 253.869 128.002L251.566 136.662C251.454 137.14 251.398 137.478 251.398 137.675C251.398 137.985 251.496 138.189 251.693 138.288C251.904 138.386 252.278 138.45 252.813 138.478L252.728 138.9C252.08 138.858 251.207 138.837 250.109 138.837C248.87 138.837 247.955 138.858 247.363 138.9L247.448 138.478C247.969 138.45 248.349 138.393 248.588 138.309C248.842 138.225 249.039 138.063 249.18 137.823C249.335 137.584 249.483 137.197 249.623 136.662L252.179 127.136L243.921 139.006H243.456L241.534 126.946L239.021 136.45C238.894 136.985 238.831 137.344 238.831 137.528C238.831 137.865 238.943 138.105 239.169 138.246C239.408 138.372 239.823 138.45 240.415 138.478L240.309 138.9C239.802 138.858 239.091 138.837 238.176 138.837C237.317 138.837 236.655 138.858 236.19 138.9L236.296 138.478C236.789 138.45 237.169 138.379 237.437 138.267C237.718 138.14 237.936 137.943 238.091 137.675C238.246 137.394 238.401 136.985 238.556 136.45L240.795 128.002C240.907 127.523 240.964 127.185 240.964 126.988C240.964 126.678 240.858 126.474 240.647 126.376C240.45 126.277 240.084 126.214 239.549 126.186L239.654 125.763C240.091 125.805 240.717 125.827 241.534 125.827C242.224 125.827 242.815 125.805 243.308 125.763L244.977 136.662L252.496 125.827H253.51ZM263.842 126.122C265.968 126.122 267.496 126.101 268.425 126.059C268.158 126.721 267.904 127.481 267.665 128.34C267.454 129.157 267.334 129.664 267.306 129.861H266.82C266.947 129.241 267.01 128.727 267.01 128.319C267.01 127.671 266.834 127.213 266.482 126.946C266.144 126.678 265.567 126.545 264.75 126.545H263.209C262.702 126.545 262.321 126.587 262.068 126.671C261.815 126.742 261.61 126.897 261.456 127.136C261.315 127.375 261.174 127.763 261.033 128.298L259.977 132.226H261.941C262.575 132.226 263.061 132.008 263.399 131.571C263.751 131.121 264.06 130.551 264.328 129.861H264.814C264.476 130.86 264.222 131.719 264.053 132.437L263.927 132.902C263.715 133.705 263.568 134.409 263.483 135.014H262.997C263.011 134.93 263.033 134.782 263.061 134.571C263.089 134.359 263.103 134.176 263.103 134.021C263.103 133.599 262.99 133.268 262.765 133.029C262.554 132.775 262.167 132.649 261.603 132.649H259.85L258.773 136.662C258.646 137.197 258.583 137.535 258.583 137.675C258.583 137.985 258.682 138.189 258.879 138.288C259.09 138.372 259.47 138.415 260.019 138.415H261.561C262.336 138.415 262.976 138.295 263.483 138.056C264.004 137.816 264.455 137.429 264.835 136.894C265.229 136.359 265.602 135.62 265.954 134.676H266.44C266.187 135.422 266.018 136 265.933 136.408C265.778 136.929 265.602 137.76 265.405 138.9C264.419 138.858 262.765 138.837 260.442 138.837C257.837 138.837 255.866 138.858 254.528 138.9L254.633 138.478C255.14 138.45 255.521 138.393 255.774 138.309C256.027 138.225 256.225 138.063 256.365 137.823C256.52 137.584 256.668 137.197 256.809 136.662L259.069 128.298C259.196 127.763 259.259 127.418 259.259 127.263C259.259 126.967 259.153 126.77 258.942 126.671C258.745 126.573 258.379 126.509 257.844 126.481L257.949 126.059C259.273 126.101 261.237 126.122 263.842 126.122ZM285.452 125.087C285.902 125.087 286.226 125.186 286.423 125.383C286.621 125.58 286.719 125.841 286.719 126.164C286.719 126.545 286.606 126.897 286.381 127.221C286.156 127.53 285.853 127.685 285.473 127.685C285.191 127.685 284.987 127.608 284.86 127.453C284.734 127.284 284.67 127.087 284.67 126.861C284.67 126.636 284.734 126.404 284.86 126.164C284.987 125.911 285.149 125.7 285.346 125.531H285.283C284.917 125.545 284.593 125.644 284.311 125.827C284.044 126.01 283.79 126.27 283.551 126.608C282.931 127.495 282.27 128.945 281.566 130.959C280.876 132.972 280.122 135.655 279.306 139.006H278.841L274.025 127.432C272.519 134.021 271.28 137.922 270.308 139.133C269.97 139.555 269.632 139.879 269.294 140.104C268.971 140.344 268.555 140.463 268.048 140.463C267.203 140.463 266.781 140.097 266.781 139.365C266.781 138.985 266.894 138.64 267.119 138.33C267.344 138.02 267.647 137.865 268.027 137.865C268.309 137.865 268.513 137.95 268.64 138.119C268.766 138.274 268.83 138.464 268.83 138.689C268.83 138.914 268.766 139.147 268.64 139.386C268.513 139.626 268.351 139.837 268.154 140.02H268.196C268.872 140.006 269.463 139.64 269.97 138.922C270.984 137.415 272.181 133.606 273.561 127.495C273.589 127.101 273.49 126.84 273.265 126.714C273.054 126.587 272.61 126.509 271.934 126.481L272.04 126.059C272.491 126.101 273.117 126.122 273.92 126.122C274.568 126.122 275.138 126.101 275.631 126.059L279.644 136.007C280.995 130.938 282.171 127.749 283.171 126.439C283.847 125.538 284.607 125.087 285.452 125.087ZM299.642 123.757C299.952 123.757 300.185 123.855 300.339 124.052C300.508 124.235 300.593 124.468 300.593 124.749C300.593 125.313 300.269 125.834 299.621 126.312C299.213 126.552 298.784 126.728 298.333 126.84C297.882 126.939 297.34 126.988 296.707 126.988C296.172 126.988 295.573 126.953 294.911 126.883L292.145 136.45C292.018 136.873 291.954 137.225 291.954 137.506C291.954 137.858 292.088 138.105 292.356 138.246C292.623 138.386 293.081 138.464 293.729 138.478L293.644 138.9C292.912 138.858 291.863 138.837 290.497 138.837C289.117 138.837 288.089 138.858 287.413 138.9L287.498 138.478C288.103 138.45 288.568 138.379 288.892 138.267C289.216 138.154 289.469 137.964 289.652 137.696C289.849 137.429 290.025 137.014 290.18 136.45L293.032 126.608C291.793 126.439 290.905 126.355 290.37 126.355C289.469 126.355 288.807 126.474 288.385 126.714C288.498 126.869 288.589 127.059 288.66 127.284C288.73 127.509 288.765 127.727 288.765 127.939C288.765 128.262 288.674 128.551 288.491 128.805C288.308 129.044 288.047 129.164 287.709 129.164C287.413 129.164 287.181 129.072 287.012 128.889C286.857 128.692 286.78 128.431 286.78 128.108C286.78 127.39 287.146 126.84 287.878 126.46C288.484 126.136 289.279 125.974 290.265 125.974C291.067 125.974 292.187 126.073 293.623 126.27C294.144 126.34 294.679 126.411 295.228 126.481C295.791 126.538 296.312 126.566 296.791 126.566C297.312 126.566 297.749 126.531 298.101 126.46C298.453 126.39 298.798 126.27 299.136 126.101C298.784 125.749 298.608 125.355 298.608 124.918C298.608 124.609 298.692 124.341 298.861 124.116C299.044 123.876 299.305 123.757 299.642 123.757Z" fill="white"/>
<path d="M132.682 107.278C133.421 108.411 134.185 109.323 134.974 110.013C135.762 110.703 136.773 111.294 138.005 111.787V113.266C134.555 113.118 130.711 113.044 126.473 113.044C123.22 113.044 120.091 113.118 117.084 113.266V111.787C118.464 111.689 119.45 111.541 120.041 111.344C120.682 111.146 121.002 110.802 121.002 110.309C121.002 109.914 120.731 109.298 120.189 108.461L109.47 91.0887C108.485 89.5117 107.647 88.4521 106.957 87.91C106.316 87.3679 105.429 87.0476 104.296 86.949V105.43C104.296 107.302 104.419 108.658 104.665 109.496C104.961 110.333 105.479 110.9 106.218 111.196C106.957 111.491 108.164 111.689 109.84 111.787V113.266C107.179 113.118 103.458 113.044 98.6776 113.044C93.4044 113.044 89.5111 113.118 86.9978 113.266V111.787C88.6241 111.689 89.8068 111.491 90.5461 111.196C91.3346 110.9 91.852 110.333 92.0985 109.496C92.3942 108.658 92.542 107.302 92.542 105.43V68.7639C92.542 66.8912 92.3942 65.5359 92.0985 64.6981C91.852 63.8603 91.3346 63.2936 90.5461 62.9979C89.8068 62.7022 88.6241 62.5051 86.9978 62.4065V60.928C89.5111 61.0759 93.4044 61.1498 98.6776 61.1498C103.458 61.1498 107.179 61.0759 109.84 60.928V62.4065C108.164 62.5051 106.957 62.7022 106.218 62.9979C105.479 63.2936 104.961 63.8603 104.665 64.6981C104.419 65.5359 104.296 66.8912 104.296 68.7639V85.3966C106.267 85.298 108.066 84.7067 109.692 83.6224C111.318 82.5382 113.167 80.8134 115.236 78.4478L119.598 73.1993C121.865 70.5873 122.998 68.2957 122.998 66.3244C122.998 65.1417 122.506 64.2053 121.52 63.5154C120.584 62.8254 119.253 62.4311 117.528 62.3326V60.928C121.126 61.0759 124.772 61.1498 128.469 61.1498C131.327 61.1498 133.643 61.0759 135.417 60.928V62.3326C131.475 63.2689 127.902 65.6345 124.699 69.4292L115.458 80.4438L132.682 107.278ZM163.055 62.4065C161.281 62.5051 159.975 62.7022 159.137 62.9979C158.348 63.2936 157.806 63.8603 157.511 64.6981C157.215 65.5359 157.067 66.8912 157.067 68.7639V106.317C157.067 107.894 157.19 109.052 157.437 109.791C157.683 110.481 158.102 110.949 158.693 111.196C159.334 111.442 160.344 111.565 161.724 111.565H165.346C168.698 111.565 171.581 110.062 173.995 107.056C176.46 104.05 178.061 100.058 178.8 95.0805H180.501C180.353 96.7561 180.279 98.9245 180.279 101.586C180.279 106.317 180.451 110.21 180.796 113.266C177.445 113.118 171.802 113.044 163.868 113.044C153.125 113.044 145.092 113.118 139.769 113.266V111.787C141.395 111.689 142.578 111.491 143.317 111.196C144.106 110.9 144.623 110.333 144.87 109.496C145.165 108.658 145.313 107.302 145.313 105.43V68.7639C145.313 66.8912 145.165 65.5359 144.87 64.6981C144.623 63.8603 144.106 63.2936 143.317 62.9979C142.578 62.7022 141.395 62.5051 139.769 62.4065V60.928C142.282 61.0759 146.176 61.1498 151.449 61.1498C156.476 61.1498 160.344 61.0759 163.055 60.928V62.4065ZM216.953 61.0759C219.22 61.0759 221.093 61.002 222.571 60.8541V62.3326C220.304 63.2689 217.939 66.1273 215.474 70.9077L206.752 88.2057V105.43C206.752 107.302 206.875 108.658 207.121 109.496C207.417 110.333 207.934 110.9 208.674 111.196C209.413 111.491 210.62 111.689 212.296 111.787V113.266C209.635 113.118 205.84 113.044 200.912 113.044C195.638 113.044 191.819 113.118 189.453 113.266V111.787C191.08 111.689 192.263 111.491 193.002 111.196C193.79 110.9 194.308 110.333 194.554 109.496C194.85 108.658 194.998 107.302 194.998 105.43V92.9368L180.731 66.5462C179.203 63.7864 177.774 62.4065 176.443 62.4065V60.8541C178.611 61.1005 181.519 61.2237 185.166 61.2237C189.749 61.2237 194.382 61.1005 199.063 60.8541V62.4065C197.339 62.4065 195.959 62.579 194.924 62.924C193.938 63.2197 193.445 63.7864 193.445 64.6242C193.445 65.0677 193.618 65.6098 193.963 66.2505L205.199 87.91L210.965 76.378C212.887 72.4847 213.848 69.4292 213.848 67.2115C213.848 65.5359 213.306 64.3285 212.222 63.5893C211.187 62.85 209.684 62.4311 207.713 62.3326V60.8541C211.064 61.002 214.144 61.0759 216.953 61.0759ZM267.52 61.1498C269.787 61.1498 271.659 61.0759 273.138 60.928V62.4065C271.906 62.85 270.698 63.7864 269.516 65.2156C268.333 66.6448 267.273 68.6407 266.337 71.2034L250.739 113.413C250.197 113.364 249.335 113.34 248.152 113.34C247.018 113.34 246.181 113.364 245.639 113.413L226.788 67.1376C226.147 65.5113 225.408 64.3285 224.57 63.5893C223.733 62.85 222.92 62.4558 222.131 62.4065V60.928C225.088 61.0759 228.833 61.1498 233.367 61.1498C238.443 61.1498 242.189 61.0759 244.604 60.928V62.4065C242.731 62.5051 241.4 62.7268 240.612 63.0718C239.823 63.4168 239.429 64.1067 239.429 65.1417C239.429 65.9795 239.725 67.1376 240.316 68.616L253.327 101.734L262.419 77.1911C263.799 73.3964 264.489 70.3902 264.489 68.1725C264.489 66.2012 263.947 64.772 262.863 63.885C261.828 62.9979 260.3 62.5051 258.279 62.4065V60.928C261.631 61.0759 264.711 61.1498 267.52 61.1498Z" fill="white"/>
</svg>
