<svg width="32" height="32" viewBox="0 0 32 32" fill="none" xmlns="http://www.w3.org/2000/svg">
<g clip-path="url(#clip0_796_1413)">
<path d="M32 16C32 19.7838 30.6866 23.2608 28.4907 26C25.5585 29.6579 21.0528 32 16 32C10.9472 32 6.4415 29.6579 3.50926 26C1.31344 23.2608 0 19.7838 0 16C0 7.16344 7.16344 0 16 0C24.8366 0 32 7.16344 32 16Z" fill="#D9D9D9"/>
<circle cx="16" cy="11" r="5" fill="#3F403F"/>
<path d="M16.5 32C20.7792 32 23.5 31 25 29.5C25 29.5 25.5 20 16.5 20C7.5 20 7.5 29.5 7.5 29.5C9 30.5 11.5 32 16.5 32Z" fill="#3F403F"/>
</g>
<defs>
<clipPath id="clip0_796_1413">
<rect width="32" height="32" fill="white"/>
</clipPath>
</defs>
</svg>
