<svg width="158" height="158" viewBox="0 0 158 158" fill="none" xmlns="http://www.w3.org/2000/svg">
<g clip-path="url(#clip0_796_1501)">
<path d="M132.482 22.3506C125.982 14.8756 117.48 20.3505 112.98 23.3505C103.482 31.3506 92.9819 23.3506 92.9819 15.8505C92.9819 -5.14936 64.9819 -3.47847 64.9819 10.3505C64.9819 14.1694 64.0823 20.4821 59.9805 24.3503C57.1008 27.066 52.0079 29.3418 46.9805 25.8505C36.7418 18.7402 26.5522 18.3658 21.9805 23.8503C18.5149 28.0078 18.6006 36.3828 22.4819 42.8505C33.4726 61.1651 16.9804 63.1054 12.4811 64.8505C-12.017 74.3525 5.9817 94.3506 12.4811 93.3505C19.5048 92.2698 35.4819 101.851 22.4819 115.851C15.0533 123.851 24.9819 147.851 40.4819 136.351C54.5673 125.9 62.314 132.85 64.4804 138.85C64.1471 145.35 69.4819 157.963 78.9804 157.35C91.3804 156.55 93.4819 145.351 93.4819 138.351C91.9819 135.351 103.482 124.589 110.48 130.85C119.98 139.35 127.982 138.351 134.48 132.851C138.88 129.127 139.982 119.351 134.48 113.851C128.155 107.527 129.982 91.9672 141.482 92.3506C156.482 92.8506 157.421 79.3263 156.98 75.3506C156.482 70.8506 151.98 64.8506 144.48 64.3506C141.982 64.184 137.482 63.3506 133.982 61.3506C130.482 59.3506 126.98 50.3505 131.48 45.3505C135.98 40.3505 142.482 33.8506 132.482 22.3506Z" stroke="black"/>
<circle cx="78.9805" cy="78.8503" r="21.5" stroke="black"/>
</g>
<defs>
<clipPath id="clip0_796_1501">
<rect width="157.06" height="157.37" fill="white"/>
</clipPath>
</defs>
</svg>
